<?xml version="1.0" encoding="UTF-8"?>
<svg xmlns="http://www.w3.org/2000/svg" viewBox="0 0 824 154"><g fill="#000" fill-rule="nonzero"><path d="M152 1v55H2V1h150Zm-3 2.946H5v49.108h144V3.946Z"/><path d="M66 50h3V31h75v-3H69V7h-3z"/><path d="M92.37 35c4.2 0 6.72 2.73 6.72 7.56 0 4.9-2.45 7.56-6.58 7.56H86V35h6.37Zm-.35 2.73h-2.8v9.73h2.8c2.73 0 3.64-2.03 3.64-4.83 0-2.87-.91-4.9-3.64-4.9Zm9.59 12.39V35h11.13v2.73h-7.91v3.22h6.93v2.73h-6.86v3.78h8.05v2.66h-11.34ZM114.14 35h3.57L121 46.34 124.29 35h3.43l-5.04 15.12h-3.43L114.14 35ZM92.37 7.28c4.2 0 6.72 2.66 6.72 7.56 0 4.83-2.45 7.56-6.58 7.56H86V7.28h6.37Zm-.35 2.73h-2.8v9.66h2.8c2.73 0 3.64-2.03 3.64-4.76 0-2.87-.91-4.9-3.64-4.9Zm9.59 12.39V7.35h11.2v2.66h-7.98v3.29h6.93v2.66h-6.86v3.71h8.05v2.73h-11.34Zm13.02-5.11h3.29c.07 1.89 1.33 2.73 3.5 2.73 1.75 0 2.52-.7 2.52-1.75 0-1.47-1.54-1.82-3.85-2.45-2.52-.7-4.97-1.61-4.97-4.34 0-3.08 2.38-4.48 5.6-4.48 3.5 0 6.02 1.82 6.23 4.9h-3.29c-.21-1.47-1.19-2.17-2.94-2.17-1.4 0-2.24.42-2.24 1.47 0 1.26 1.12 1.61 3.01 2.17 2.94.77 5.74 1.54 5.74 4.62 0 2.8-2.03 4.69-5.74 4.69-3.99 0-6.79-1.96-6.86-5.39ZM21.42 21c4.69 0 7.49 3.29 7.49 7.84s-2.8 7.84-7.49 7.84c-4.62 0-7.42-3.29-7.42-7.84S16.8 21 21.42 21Zm0 2.66c-3.01 0-4.06 2.38-4.06 5.18s1.05 5.18 4.06 5.18c3.08 0 4.13-2.38 4.13-5.18s-1.05-5.18-4.13-5.18Zm17.01-2.38c2.94 0 4.97 1.54 4.97 4.69 0 3.22-2.03 4.76-4.97 4.76h-3.71v5.67H31.5V21.28h6.93Zm-.63 2.73h-3.08V28h3.08c1.4 0 2.31-.56 2.31-2.03 0-1.4-.91-1.96-2.31-1.96Zm6.79 7.28h3.36c.07 1.89 1.33 2.73 3.43 2.73 1.82 0 2.52-.7 2.52-1.75 0-1.47-1.47-1.82-3.85-2.45-2.45-.7-4.9-1.61-4.9-4.34 0-3.08 2.38-4.48 5.6-4.48 3.5 0 6.02 1.82 6.23 4.9h-3.29c-.21-1.4-1.19-2.17-2.94-2.17-1.4 0-2.24.42-2.24 1.47 0 1.26 1.05 1.61 3.01 2.17 2.87.77 5.74 1.54 5.74 4.62 0 2.8-2.03 4.69-5.81 4.69-3.85 0-6.79-1.96-6.86-5.39ZM220.403 20.06c7.56 0 12.88 8.4 12.88 19.39 0 10.78-4.69 19.67-12.88 19.67-7.63 0-12.95-8.4-12.95-19.39 0-10.78 4.69-19.67 12.95-19.67Zm29.497 0c5.25 0 8.4 3.92 8.4 8.54 0 2.52-.98 3.92-2.73 3.92-1.54 0-2.24-1.19-2.24-2.38 0-.98.49-2.38.49-3.85 0-2.52-1.47-3.92-3.92-3.92-6.09 0-8.4 8.33-8.4 16.45 0 9.17 3.08 16.87 8.4 16.87 4.06 0 6.23-3.64 8.05-15.33l1.47.28c-1.61 12.67-4.34 18.48-10.64 18.48-7 0-11.06-8.05-11.06-19.04 0-11.2 4.27-20.02 12.18-20.02Zm25.5 0c7.56 0 12.88 8.4 12.88 19.39 0 10.78-4.69 19.67-12.88 19.67-7.63 0-12.95-8.4-12.95-19.39 0-10.78 4.69-19.67 12.95-19.67Zm75.914 0c7.56 0 12.88 8.4 12.88 19.39 0 10.78-4.69 19.67-12.88 19.67-7.63 0-12.95-8.4-12.95-19.39 0-10.78 4.69-19.67 12.95-19.67Zm23.223-8.68v9.8h8.54v2.31h-8.54v21.08c.01 6.67.335 11.4 3.43 11.4 2.31 0 3.57-3.92 6.02-15.61l1.47.28c-2.24 12.67-3.5 18.48-8.33 18.48-3.85 0-6.09-3.15-6.09-12.39V23.49h-5.11v-1.96c4.97 0 6.72-4.2 6.86-10.15h1.75Zm66.161 8.68c6.58 0 10.36 6.93 10.36 16.66h-18.13c-.07.77-.07 1.47-.07 2.24 0 9.17 3.15 16.8 8.82 16.8 3.64 0 6.51-3.71 8.33-15.4l1.47.28c-1.61 12.67-4.83 18.48-10.85 18.48-7.35 0-11.48-7.98-11.48-18.97 0-11.13 4.27-20.09 11.55-20.09Zm-29.269 1.12v1.47c-4.76 0-4.69.77-3.5 4.9l6.79 23.87h.35l6.93-23.87c1.26-4.13 1.33-4.9-3.43-4.9v-1.47h11.48v1.47c-3.36 0-4.41.77-5.67 4.9l-9.24 31.08h-1.96l-9.1-31.08c-1.26-4.13-2.24-4.9-5.39-4.9v-1.47h12.74ZM186.41 2v1.47c-6.72 0-7.28.91-7.28 5.18v42.84c0 3.43.63 4.13 3.5 4.13h11.97c4.55 0 5.81-1.47 8.68-15.4l1.47.28-3.36 16.59-.21.91H168v-1.47c6.72 0 7.28-.91 7.28-5.18V8.65c0-4.27-.56-5.18-7.28-5.18V2h18.41Zm138.456 18.06c4.69 0 6.58 3.78 6.58 9.31v22.227c.02 4.125.567 4.933 4.48 4.933V58h-12.32v-1.47c3.85 0 4.34-.84 4.34-5.18V29.51c0-4.2-1.61-6.16-4.41-6.16-2.94 0-5.46 2.17-7.91 5.25v23.001c.02 4.122.565 4.929 4.34 4.929V58h-12.18v-1.47c3.85 0 4.34-.84 4.34-5.18V29.51c0-4.2-1.61-6.16-4.48-6.16-3.08 0-5.6 2.31-8.12 5.6v22.651c.02 4.122.565 4.929 4.34 4.929V58h-12.39v-1.47c3.99 0 4.48-.84 4.48-5.18V27.9c0-4.41-.56-5.25-4.97-5.25v-1.47h7.63l.91.84v4.62h.21c2.45-3.85 5.25-6.58 9.24-6.58 3.92 0 5.88 2.59 6.44 6.58h.14c2.52-3.85 5.25-6.58 9.31-6.58Zm70.151 1.12.84.84v29.577c.02 4.125.568 4.933 4.55 4.933V58h-12.6v-1.47c4.06 0 4.55-.84 4.55-5.18V27.9c0-4.41-.49-5.25-4.76-5.25v-1.47h7.42Zm-174.614 1.19c-6.09 0-9.1 7.98-9.1 17.36 0 9.45 3.5 17.08 9.1 17.08 6.02 0 9.1-7.98 9.1-17.36 0-9.45-3.57-17.08-9.1-17.08Zm54.997 0c-6.09 0-9.1 7.98-9.1 17.36 0 9.45 3.5 17.08 9.1 17.08 6.02 0 9.1-7.98 9.1-17.36 0-9.45-3.57-17.08-9.1-17.08Zm75.914 0c-6.09 0-9.1 7.98-9.1 17.36 0 9.45 3.5 17.08 9.1 17.08 6.02 0 9.1-7.98 9.1-17.36 0-9.45-3.57-17.08-9.1-17.08Zm89.384 0c-4.41 0-6.86 5.46-7.56 12.04h14.14c0-5.6-1.82-12.04-6.58-12.04ZM458.535 1C463.222 1 467 4.816 467 9.535c0 4.649-3.778 8.465-8.465 8.465-4.757 0-8.535-3.816-8.535-8.465A8.504 8.504 0 0 1 458.535 1Zm0 1.318c-4.058 0-7.206 3.192-7.206 7.217 0 3.955 3.148 7.147 7.206 7.147 3.988 0 7.066-3.192 7.066-7.147 0-4.025-3.078-7.217-7.066-7.217Zm.7 2.568c1.679 0 2.938 1.04 2.938 2.636 0 1.527-1.19 2.568-2.868 2.568l2.938 3.886h-1.54l-2.868-3.886h-1.119v3.886h-1.26v-9.09h3.779ZM396.697 6.76v6.23h-6.93V6.76h6.93Zm62.398-.625h-2.379V8.98h2.379c1.049 0 1.749-.556 1.749-1.458 0-.902-.63-1.387-1.75-1.387ZM745 81v27h79v3h-82V81h3Zm15.2 0c6.16 0 11.2 5.04 11.2 11.2 0 6.16-5.04 11.2-11.2 11.2-6.16 0-11.2-5.04-11.2-11.2 0-6.16 5.04-11.2 11.2-11.2Zm26.53 0c5.25 0 9.66 3.43 10.92 8.26h-2.94c-1.33-3.36-4.55-5.46-7.98-5.46-4.55 0-8.33 3.78-8.33 8.4 0 4.62 3.78 8.4 8.33 8.4 3.43 0 6.65-2.1 7.98-5.46h2.94c-1.26 4.83-5.67 8.26-10.92 8.26-6.09 0-11.13-5.04-11.13-11.2 0-6.16 5.04-11.2 11.13-11.2Zm25.97 0c6.16 0 11.2 5.04 11.2 11.2 0 6.16-5.04 11.2-11.2 11.2-6.16 0-11.2-5.04-11.2-11.2 0-6.16 5.04-11.2 11.2-11.2Zm-52.5 2.8c-4.62 0-8.4 3.78-8.4 8.4 0 4.62 3.78 8.4 8.4 8.4 4.62 0 8.4-3.78 8.4-8.4 0-4.62-3.78-8.4-8.4-8.4Zm52.5 0c-4.62 0-8.4 3.78-8.4 8.4 0 4.62 3.78 8.4 8.4 8.4 4.62 0 8.4-3.78 8.4-8.4 0-4.62-3.78-8.4-8.4-8.4ZM707.611 81v32.48l-19.444-19.6-1.945 1.96 19.306 19.46H684v2.8h21.806l-11.945 12.04 1.945 1.96 11.805-11.9V137h2.778v-16.8l11.805 11.9 1.945-1.96-11.945-12.04H734v-2.8h-21.528l19.306-19.46-1.945-1.96-19.444 19.6V81zM570.654 98.74v3.5c-4.41 0-6.37-.77-8.26-.49 2.45 2.38 3.92 6.16 3.92 10.71 0 7.91-4.41 13.51-10.99 13.51-2.03 0-3.92-.56-5.46-1.54-1.75 1.54-2.8 2.8-2.8 4.41l.001.202c.026 1.881.51 3.578 6.999 3.578h7.14c7.07 0 10.08 1.61 10.08 6.79 0 6.93-7.35 13.93-17.92 13.93-6.65 0-12.53-2.59-12.53-8.47 0-4.48 3.36-7.28 7.07-9.38-2.8-.98-3.78-2.8-3.78-5.11 0-2.73 1.89-4.83 4.41-6.93-2.59-2.38-4.2-6.3-4.2-10.99 0-7.84 4.41-13.51 10.99-13.51 2.17 0 4.2.63 5.81 1.75 2.59-1.33 5.46-1.96 9.52-1.96Zm-20.65 37.24c-3.29 2.03-6.09 4.69-6.09 7.77 0 3.36 3.29 6.44 10.29 6.44 9.03 0 14.56-5.04 14.56-9.66 0-3.5-2.17-4.27-7.63-4.27h-7.28c-1.47 0-2.73-.07-3.85-.28Zm-30.422-56.21 16.03 50.68c1.33 4.2 2.59 4.9 7 4.9v1.47h-16.66v-1.47c6.79 0 6.65-.77 5.39-4.9l-3.92-12.53h-19.6l-3.92 12.53c-1.26 4.13-1.4 4.9 5.32 4.9v1.47h-14.49v-1.47c4.34 0 5.53-.7 6.86-4.9l15.96-50.68h2.03Zm34.972 21.35c-4.62 0-6.58 4.83-6.58 9.87 0 5.74 2.24 12.81 8.12 12.81 4.41 0 6.51-3.99 6.51-9.45 0-6.02-2.38-13.23-8.05-13.23Zm-36.722-14.07h-.28l-9.03 28.7h18.27l-8.96-28.7Zm65.209 11.83c6.58 0 10.36 6.93 10.36 16.66h-18.13c-.07.77-.07 1.47-.07 2.24 0 9.17 3.15 16.8 8.82 16.8 3.64 0 6.51-3.71 8.33-15.4l1.47.28c-1.61 12.67-4.83 18.48-10.85 18.48-7.35 0-11.48-7.98-11.48-18.97 0-11.13 4.27-20.09 11.55-20.09Zm0 2.31c-4.41 0-6.86 5.46-7.56 12.04h14.14c0-5.6-1.82-12.04-6.58-12.04Zm14.059 35.63h12.46v-1.47c-3.92 0-4.41-.84-4.41-5.18v-22.4c2.73-3.22 5.53-5.6 8.89-5.6 2.87 0 4.69 1.96 4.69 6.23v21.77c0 4.34-.49 5.18-4.41 5.18v1.47h12.32v-1.47c-3.99 0-4.48-.84-4.48-5.18v-21.98c0-5.53-1.96-9.31-6.93-9.31-4.13 0-6.86 2.66-9.87 6.58h-.21v-4.62l-.91-.84h-7.63v1.47c4.41 0 4.97.84 4.97 5.25v23.45c0 4.34-.49 5.18-4.48 5.18v1.47ZM663.565 100v1.47c-4.76 0-4.69.77-3.5 4.9l6.79 23.87h.28l6.37-23.8c1.12-4.2 1.12-4.97-3.64-4.97V100h10.85v1.47c-2.8 0-3.78.77-4.9 4.97l-8.19 29.33c-2.52 9.31-5.04 17.29-11.13 17.29-2.94 0-5.18-1.61-5.18-3.92 0-1.33.91-2.31 2.24-2.31 1.4 0 2.1.98 2.66 1.96.63 1.12 1.19 1.47 2.17 1.47 2.24 0 4.06-3.5 5.88-9.94.35-1.19.63-3.22.63-4.83l-8.82-29.12c-1.19-4.13-2.24-4.9-5.46-4.9V100h12.95Zm-22.368-1.12c5.25 0 8.4 3.92 8.4 8.54 0 2.52-.98 3.92-2.73 3.92-1.54 0-2.24-1.19-2.24-2.38 0-.98.49-2.38.49-3.85 0-2.52-1.47-3.92-3.92-3.92-6.09 0-8.4 8.33-8.4 16.45 0 9.17 3.08 16.87 8.4 16.87 4.06 0 6.23-3.64 8.05-15.33l1.47.28c-1.61 12.67-4.34 18.48-10.64 18.48-7 0-11.06-8.05-11.06-19.04 0-11.2 4.27-20.02 12.18-20.02ZM326.712 80.82c15.33 0 27.44 10.36 27.44 28.49 0 16.8-10.43 27.51-26.39 27.51h-16.94v-1.47c6.72 0 7.28-.91 7.28-5.18v-42.7c0-4.27-.56-5.18-7.28-5.18v-1.47Zm.7 2.31c-1.82 0-3.29.21-3.92.35-1.05.21-1.47.91-1.47 1.89v46.13c0 2.52 1.75 3.01 5.11 3.01 15.89 0 22.89-11.48 22.89-24.92 0-15.75-9.73-26.46-22.61-26.46Zm42.548 15.75c6.58 0 10.36 6.93 10.36 16.66h-18.13c-.07.77-.07 1.47-.07 2.24 0 9.17 3.15 16.8 8.82 16.8 3.64 0 6.51-3.71 8.33-15.4l1.47.28c-1.61 12.67-4.83 18.48-10.85 18.48-7.35 0-11.48-7.98-11.48-18.97 0-11.13 4.27-20.09 11.55-20.09Zm0 2.31c-4.41 0-6.86 5.46-7.56 12.04h14.14c0-5.6-1.82-12.04-6.58-12.04Zm25.87 36.75c4.55 0 8.4-3.15 8.4-9.24 0-4.83-2.66-7.7-8.89-13.09-4.48-3.85-6.58-5.67-6.58-9.03 0-3.22 2.17-5.39 5.18-5.39 4.69 0 7.28 4.41 7.84 9.87h1.4l-.14-11.69h-1.33l-.28 1.4c-.21.91-.84 1.19-1.75.42-1.12-1.05-3.08-2.31-6.02-2.31-4.83 0-8.19 3.5-8.19 8.4 0 3.71 1.96 6.09 7.56 10.92 6.3 5.6 7.91 7.14 7.91 10.78 0 3.92-1.82 6.65-5.32 6.65-4.41 0-8.33-4.13-9.24-13.02h-1.33l.35 14.63h1.4l.49-1.33c.35-.91.84-1.05 1.75-.42 1.33 1.05 3.78 2.45 6.79 2.45Zm19.663-7.77v-29.33l-.84-.84h-7.42v1.47c4.27 0 4.76.84 4.76 5.25v23.45c0 4.34-.49 5.18-4.55 5.18v1.47h12.6v-1.47c-4.06 0-4.55-.84-4.55-5.18Zm-6.09-38.36h6.93v-6.23h-6.93v6.23Zm41.482 6.93v3.5c-4.41 0-6.37-.77-8.26-.49 2.45 2.38 3.92 6.16 3.92 10.71 0 7.91-4.41 13.51-10.99 13.51-2.03 0-3.92-.56-5.46-1.54-1.75 1.54-2.8 2.8-2.8 4.41 0 1.96.28 3.78 7 3.78h7.14c7.07 0 10.08 1.61 10.08 6.79 0 6.93-7.35 13.93-17.92 13.93-6.65 0-12.53-2.59-12.53-8.47 0-4.48 3.36-7.28 7.07-9.38-2.8-.98-3.78-2.8-3.78-5.11 0-2.73 1.89-4.83 4.41-6.93-2.59-2.38-4.2-6.3-4.2-10.99 0-7.84 4.41-13.51 10.99-13.51 2.17 0 4.2.63 5.81 1.75 2.59-1.33 5.46-1.96 9.52-1.96Zm-20.65 37.24c-3.29 2.03-6.09 4.69-6.09 7.77 0 3.36 3.29 6.44 10.29 6.44 9.03 0 14.56-5.04 14.56-9.66 0-3.5-2.17-4.27-7.63-4.27h-7.28c-1.47 0-2.73-.07-3.85-.28Zm4.55-34.86c-4.62 0-6.58 4.83-6.58 9.87 0 5.74 2.24 12.81 8.12 12.81 4.41 0 6.51-3.99 6.51-9.45 0-6.02-2.38-13.23-8.05-13.23Zm17.544 35.7h12.46v-1.47c-3.92 0-4.41-.84-4.41-5.18v-22.4c2.73-3.22 5.53-5.6 8.89-5.6 2.87 0 4.69 1.96 4.69 6.23v21.77c0 4.34-.49 5.18-4.41 5.18v1.47h12.32v-1.47c-3.99 0-4.48-.84-4.48-5.18v-21.98c0-5.53-1.96-9.31-6.93-9.31-4.13 0-6.86 2.66-9.87 6.58h-.21v-4.62l-.91-.84h-7.63v1.47c4.41 0 4.97.84 4.97 5.25v23.45c0 4.34-.49 5.18-4.48 5.18v1.47Zm-254.431 0h15.26v-1.47c-6.02 0-6.72-.84-6.72-5.18v-27.86h11.13c3.57 0 3.57 2.17 3.57 4.83v23.03c0 4.34-.49 5.18-4.55 5.18v1.47h12.67v-1.47c-4.06 0-4.55-.84-4.55-5.18V99.65l-.7-.77c-1.47.77-2.94 1.12-5.25 1.12h-12.32v-7.14c0-8.68 3.08-11.27 6.86-11.27 2.24 0 3.36 1.26 4.62 3.22.91 1.4 1.54 2.45 3.01 2.45 1.47 0 2.45-1.05 2.45-2.45 0-2.94-4.48-5.81-8.89-5.81-6.72 0-11.62 4.06-11.62 14.28v6.86l-4.48.49v1.68h4.48v27.86c0 4.34-.56 5.18-4.97 5.18v1.47Zm34.119 0h14.84v-1.47c-6.09 0-6.86-.84-6.86-5.25v-20.79c1.96-4.76 3.85-6.93 5.39-6.93.77 0 1.12.28 1.82.98.63.63 1.05 1.12 2.03 1.12 1.05 0 2.38-1.05 2.38-3.01 0-1.54-1.12-2.66-3.15-2.66-3.43 0-6.37 3.01-8.26 7h-.21v-4.97l-.77-.84h-7.7v1.47c4.41 0 4.97.84 4.97 5.25v23.45c0 4.34-.49 5.18-4.48 5.18v1.47Zm33.124 1.12c4.55 0 8.4-3.15 8.4-9.24 0-4.83-2.66-7.7-8.89-13.09-4.48-3.85-6.58-5.67-6.58-9.03 0-3.22 2.17-5.39 5.18-5.39 4.69 0 7.28 4.41 7.84 9.87h1.4l-.14-11.69h-1.33l-.28 1.4c-.21.91-.84 1.19-1.75.42-1.12-1.05-3.08-2.31-6.02-2.31-4.83 0-8.19 3.5-8.19 8.4 0 3.71 1.96 6.09 7.56 10.92 6.3 5.6 7.91 7.14 7.91 10.78 0 3.92-1.82 6.65-5.32 6.65-4.41 0-8.33-4.13-9.24-13.02h-1.33l.35 14.63h1.4l.49-1.33c.35-.91.84-1.05 1.75-.42 1.33 1.05 3.78 2.45 6.79 2.45Zm30.301-18.48-1.47-.28c-2.45 11.69-3.71 15.61-6.02 15.61-3.15 0-3.43-4.9-3.43-11.76v-20.72h8.54V100h-8.54v-9.8h-1.75c-.14 5.95-1.89 10.15-6.86 10.15v1.96h5.11v23.24c0 9.24 2.24 12.39 6.09 12.39 4.83 0 6.09-5.81 8.33-18.48Zm-123.174.07h21.77v-3.22h-21.77v3.22ZM15.89 80.82c15.33 0 27.44 10.36 27.44 28.49 0 16.8-10.43 27.51-26.39 27.51H0v-1.47c6.72 0 7.28-.91 7.28-5.18V87.263C7.26 83.17 6.61 82.29 0 82.29v-1.47Zm.7 2.31c-1.82 0-3.29.21-3.92.35-1.05.21-1.47.91-1.47 1.89v46.13c0 2.52 1.75 3.01 5.11 3.01 15.89 0 22.89-11.48 22.89-24.92 0-15.75-9.73-26.46-22.61-26.46Zm38.28 47.04v-29.33l-.84-.84h-7.42v1.47c4.27 0 4.76.84 4.76 5.25v23.45c0 4.34-.49 5.18-4.55 5.18v1.47h12.6v-1.47c-4.06 0-4.55-.84-4.55-5.18Zm-6.09-38.36h6.93v-6.23h-6.93v6.23Zm41.482 6.93v3.5c-4.41 0-6.37-.77-8.26-.49 2.45 2.38 3.92 6.16 3.92 10.71 0 7.91-4.41 13.51-10.99 13.51-2.03 0-3.92-.56-5.46-1.54-1.75 1.54-2.8 2.8-2.8 4.41l.002.202c.025 1.881.51 3.578 6.998 3.578h7.14c7.07 0 10.08 1.61 10.08 6.79 0 6.93-7.35 13.93-17.92 13.93-6.65 0-12.53-2.59-12.53-8.47 0-4.48 3.36-7.28 7.07-9.38-2.8-.98-3.78-2.8-3.78-5.11 0-2.73 1.89-4.83 4.41-6.93-2.59-2.38-4.2-6.3-4.2-10.99 0-7.84 4.41-13.51 10.99-13.51 2.17 0 4.2.63 5.81 1.75 2.59-1.33 5.46-1.96 9.52-1.96Zm-20.65 37.24c-3.29 2.03-6.09 4.69-6.09 7.77 0 3.36 3.29 6.44 10.29 6.44 9.03 0 14.56-5.04 14.56-9.66 0-3.5-2.17-4.27-7.63-4.27h-7.28c-1.47 0-2.73-.07-3.85-.28Zm4.55-34.86c-4.62 0-6.58 4.83-6.58 9.87 0 5.74 2.24 12.81 8.12 12.81 4.41 0 6.51-3.99 6.51-9.45 0-6.02-2.38-13.23-8.05-13.23Zm25.313 29.05v-29.33l-.84-.84h-7.42v1.47c4.27 0 4.76.84 4.76 5.25v23.45c0 4.34-.49 5.18-4.55 5.18v1.47h12.6v-1.47c-4.06 0-4.55-.84-4.55-5.18Zm-6.09-38.36h6.93v-6.23h-6.93v6.23Zm31.683 27.65-1.47-.28c-2.45 11.69-3.71 15.61-6.02 15.61-3.15 0-3.43-4.9-3.43-11.76v-20.72h8.54V100h-8.54v-9.8h-1.75c-.14 5.95-1.89 10.15-6.86 10.15v1.96h5.11v23.24c0 9.24 2.24 12.39 6.09 12.39 4.83 0 6.09-5.81 8.33-18.48Zm14.53-20.65c5.11 0 8.89 3.01 8.89 10.43v21.56c0 3.92.91 4.76 2.1 4.76 1.4 0 2.52-1.33 2.59-6.09h1.47c-.07 4.69-1.19 8.47-4.9 8.47-3.08 0-4.83-2.52-4.83-7.56v-2.94c-1.96 7-5.39 10.5-9.87 10.5-4.62 0-7.14-3.71-7.14-8.12 0-7.313 6.766-11.343 13.48-14.708l.649-.323c.973-.483 1.94-.953 2.881-1.419v-3.99c0-6.09-2.24-8.33-5.95-8.33-3.08 0-5.39 1.54-5.39 4.13 0 1.75.98 2.38.98 3.78s-.84 2.38-2.31 2.38c-1.75 0-2.73-1.61-2.73-3.85 0-4.9 4.34-8.68 10.08-8.68Zm5.32 16.66-1.258.65-.63.328c-5.778 3.02-11.412 6.41-11.412 12.532 0 3.15 1.47 5.6 4.41 5.6 3.22 0 6.65-3.01 8.89-10.64Zm18.558 14.7V81.59l-.77-.77h-7.77v1.47c4.41 0 4.97.84 4.97 5.18v42.7c0 4.34-.49 5.18-4.55 5.18v1.47h12.67v-1.47c-4.06 0-4.55-.84-4.55-5.18Z"/></g></svg>
